<svg xmlns="http://www.w3.org/2000/svg" xmlns:lucid="lucid" width="456.98" height="246.08"><g lucid:page-tab-id="3y4RR0l0zLH-"><path d="M120.28 219.47a7.38 7.38 0 0 1-9.3-.3l-91.45-79.32a2.24 2.24 0 0 1 1.47-3.93h203a2.02 2.02 0 0 1 1.23 3.63z" stroke="#fff" stroke-width="5" fill="#d51717" fill-opacity=".57"/><path d="M50.64 207.32a2.48 2.48 0 0 0 3.25 3.23l221.24-92.14a2.48 2.48 0 0 0 0-4.58L121.7 50.67a6 6 0 0 0-7.82 3.26z" stroke="#fff" stroke-width="5" fill="#d51717" fill-opacity=".57"/><path d="M106.33 131.56a2.48 2.48 0 0 0 1.76 4.24h239.66a2.48 2.48 0 0 0 1.76-4.24L232.17 14.26a6 6 0 0 0-8.5 0z" stroke="#fff" stroke-width="5" fill="#d51717" fill-opacity=".57"/><path d="M182.03 114.25a2.48 2.48 0 0 0 .04 4.6l222.2 89.85a2.48 2.48 0 0 0 3.2-3.27L342.68 52.7a6 6 0 0 0-7.88-3.18z" stroke="#fff" stroke-width="5" fill="#e44040" fill-opacity=".51"/><path d="M335.14 219.3a7.4 7.4 0 0 1-9.32.05l-99.5-79.68a2.1 2.1 0 0 1 1.3-3.75h203a2.15 2.15 0 0 1 1.38 3.8z" stroke="#fff" stroke-width="5" fill="#d51717" fill-opacity=".57"/></g></svg>