<svg xmlns="http://www.w3.org/2000/svg" xmlns:xlink="http://www.w3.org/1999/xlink" xmlns:lucid="lucid" width="1236" height="194.67"><g transform="translate(-491.33333333333326 -419.3333333333333)" lucid:page-tab-id="5W4Rh0hSgBdo"><path d="M491.33 425.33a6 6 0 0 1 6-6h480a6 6 0 0 1 6 6V608a6 6 0 0 1-6 6h-480a6 6 0 0 1-6-6z" fill="none"/><use xlink:href="#a" transform="matrix(1,0,0,1,491.33333333333326,419.3333333333333) translate(3.8333333333333144 170.66666666666669)"/><path d="M1235.33 425.33a6 6 0 0 1 6-6h480a6 6 0 0 1 6 6V608a6 6 0 0 1-6 6h-480a6 6 0 0 1-6-6z" fill="none"/><use xlink:href="#b" transform="matrix(1,0,0,1,1235.3333333333333,419.33333333333337) translate(50.23333333333329 170.66666666666669)"/><path d="M892.67 425.33a6 6 0 0 1 6-6h480a6 6 0 0 1 6 6V608a6 6 0 0 1-6 6h-480a6 6 0 0 1-6-6z" fill="none"/><use xlink:href="#c" transform="matrix(1,0,0,1,892.6666666666666,419.33333333333337) translate(173.86 170.66666666666669)"/><defs><path d="M394-400l-99 207 39 92 146-299h64L382-60h158c95 0 136-67 136-67l38 44S655 0 540 0H305l-46-117C215-24 203 0 203 0h-48l-53-137-50 58-39-42 65-77L0-400h60l124 299 45-93-79-206h60l55 133 65-133h64" id="d"/><path d="M1-200c0-110 90-200 200-200 104 0 199 79 199 220H61c10 68 69 120 139 120h230c95 0 136-67 136-67l38 44S545 0 430 0H200C91 0 1-89 1-200zm64-34h269c-6-64-70-104-135-104-57 0-115 31-134 104" id="e"/><path d="M199-200v-145h-90c-2 115 14 199-55 262l-38-44c15-24 33-33 33-93v-180h210v200c0 77 63 140 140 140 95 0 136-67 136-67l38 44S514 0 399 0C289 0 199-90 199-200" id="f"/><path d="M400-60h60c45 0 106-67 106-67l38 44S535 0 460 0H340v-200c0-77-63-140-140-140S60-277 60-200V0H0v-400h60v88c26-56 95-88 150-88 110 0 190 90 190 200v140" id="g"/><g id="a"><use transform="matrix(0.21333333333333335,0,0,0.21333333333333335,0,0)" xlink:href="#d"/><use transform="matrix(0.21333333333333335,0,0,0.21333333333333335,140.58666666666667,0)" xlink:href="#e"/><use transform="matrix(0.21333333333333335,0,0,0.21333333333333335,257.49333333333334,0)" xlink:href="#f"/><use transform="matrix(0.21333333333333335,0,0,0.21333333333333335,368.21333333333337,0)" xlink:href="#g"/></g><path d="M400-60h60c45 0 106-67 106-67l38 44S535 0 460 0H340v-200c0-77-63-140-140-140S60-277 60-200V0H0v-650h60v338c26-56 95-88 150-88 110 0 190 90 190 200v140" id="h"/><path d="M-25-550c0-28 22-50 50-50s50 22 50 50-22 50-50 50-50-22-50-50zM0-200v-200h60v200c0 77 63 140 140 140 95 0 136-67 136-67l38 44S315 0 200 0C90 0 0-90 0-200" id="i"/><path d="M200 0C90 0 0-90 0-200v-145h-50v-55H0v-140l60-10v150h140l-10 55H60v145c0 77 63 140 140 140 95 0 136-67 136-67l38 44S315 0 200 0" id="j"/><g id="b"><use transform="matrix(0.21333333333333335,0,0,0.21333333333333335,0,0)" xlink:href="#d"/><use transform="matrix(0.21333333333333335,0,0,0.21333333333333335,140.58666666666667,0)" xlink:href="#h"/><use transform="matrix(0.21333333333333335,0,0,0.21333333333333335,257.7066666666667,0)" xlink:href="#i"/><use transform="matrix(0.21333333333333335,0,0,0.21333333333333335,325.12000000000006,0)" xlink:href="#j"/></g><path d="M314-465h60c0 69-56 125-125 125-77 0-140 63-140 140S172-60 249-60s140-63 140-140H269v-60h181c95 0 136-67 136-67l38 44s-59 83-175 83C449-90 359 0 249 0S49-90 49-200s90-200 200-200c36 0 65-29 65-65" id="k"/><use transform="matrix(0.21333333333333335,0,0,0.21333333333333335,0,0)" xlink:href="#k" id="c"/></defs></g></svg>