<svg version="1.1" viewBox="0.0 0.0 960.0 540.0" fill="none" stroke="none" stroke-linecap="square" stroke-miterlimit="10" xmlns:xlink="http://www.w3.org/1999/xlink" xmlns="http://www.w3.org/2000/svg"><clipPath id="g333ab550f38_0_24.0"><path d="m0 0l960.0 0l0 540.0l-960.0 0l0 -540.0z" clip-rule="nonzero"/></clipPath><g clip-path="url(#g333ab550f38_0_24.0)"><path fill="#ffffff" d="m0 0l960.0 0l0 540.0l-960.0 0z" fill-rule="evenodd"/><path fill="#3d85c6" fill-opacity="0.6091" d="m326.7868 462.92212l0.17321777 -154.81888l154.81891 -0.17324829z" fill-rule="evenodd"/><path stroke="#ffffff" stroke-width="4.0" stroke-linejoin="round" stroke-linecap="butt" d="m326.7868 462.92212l0.17321777 -154.81888l154.81891 -0.17324829z" fill-rule="evenodd"/><path fill="#980000" fill-opacity="0.6455" d="m327.89603 380.271l59.40158 -142.92912l143.1181 59.086624z" fill-rule="evenodd"/><path stroke="#ffffff" stroke-width="4.0" stroke-linejoin="round" stroke-linecap="butt" d="m327.89603 380.271l59.40158 -142.92912l143.1181 59.086624z" fill-rule="evenodd"/><path fill="#fce9a4" fill-opacity="0.8039" d="m359.00708 308.88443l109.590576 -109.35434l109.590515 109.35434z" fill-rule="evenodd"/><path stroke="#ffffff" stroke-width="4.0" stroke-linejoin="round" stroke-linecap="butt" d="m359.00708 308.88443l109.590576 -109.35434l109.590515 109.35434z" fill-rule="evenodd"/><path fill="#980000" fill-opacity="0.6455" d="m455.00513 308.94415l154.83466 0.15750122l0.18896484 154.80313z" fill-rule="evenodd"/><path stroke="#ffffff" stroke-width="4.0" stroke-linejoin="round" stroke-linecap="butt" d="m455.00513 308.94415l154.83466 0.15750122l0.18896484 154.80313z" fill-rule="evenodd"/><path fill="#3d85c6" fill-opacity="0.6091" d="m408.227 296.44455l143.1181 -59.118103l59.40161 142.96063z" fill-rule="evenodd"/><path stroke="#ffffff" stroke-width="4.0" stroke-linejoin="round" stroke-linecap="butt" d="m408.227 296.44455l143.1181 -59.118103l59.40161 142.96063z" fill-rule="evenodd"/><path fill="#000000" fill-opacity="0.0" d="m221.89508 87.67198l248.6614 0.06298828l0 135.74803l-248.6614 -0.06298828z" fill-rule="evenodd"/><path fill="#595959" d="m250.3482 179.83919l13.03125 -41.715454l5.71875 0.001449585l-1.125 8.296585l-13.265625 42.418518l-5.578125 -0.0014038086l1.21875 -8.999695zm-8.765625 -41.720978l11.109375 42.190323l0.796875 8.531448l-5.859375 -0.0014801025l-14.71875 -50.72249l8.671875 0.0021972656zm39.984375 41.869507l10.59375 -41.85669l8.625 0.0021820068l-14.71875 50.715027l-5.8125 -0.0014801025l1.3125 -8.859039zm-11.203125 -41.862213l12.75 41.01886l1.453125 9.703491l-5.53125 -0.0014038086l-13.640625 -42.519073l-1.125 -8.203415l6.09375 0.0015411377zm60.328125 51.67154q-5.296875 -0.0013427734 -9.59375 -1.7993164q-4.28125 -1.8135834 -7.359375 -5.0956116q-3.0625 -3.2820282 -4.703125 -7.78244q-1.640625 -4.500412 -1.640625 -9.844162l0 -1.96875q0 -6.1875 1.828125 -11.030792q1.828125 -4.858902 4.96875 -8.2331085q3.140625 -3.3742065 7.125 -5.1075745q3.984375 -1.7333679 8.25 -1.7322845q5.4375 0.001373291 9.390625 1.8773804q3.96875 1.8760071 6.5 5.236023q2.53125 3.3443909 3.75 7.875946q1.21875 4.51593 1.21875 9.85968l0 3.890625l-37.875 -0.009597778l0 -7.078125l29.203125 0.0074005127l0 -0.65625q-0.1875 -3.3750458 -1.390625 -6.562851q-1.1875 -3.1878052 -3.765625 -5.250946q-2.578125 -2.0631561 -7.03125 -2.0642853q-2.953125 -7.4768066E-4 -5.4375 1.2486267q-2.484375 1.2337341 -4.265625 3.6707916q-1.78125 2.4370422 -2.765625 5.952423q-0.984375 3.5153809 -0.984375 8.109131l0 1.96875q0 3.609375 1.0 6.781494q1.015625 3.1565094 2.953125 5.5476227q1.953125 2.3911285 4.734375 3.7512054q2.796875 1.3600769 6.359375 1.3609772q4.59375 0.0011749268 7.78125 -1.8730164q3.1875 -1.8741913 5.578125 -5.014221l5.25 4.1732025q-1.640625 2.483963 -4.171875 4.733322q-2.53125 2.2493591 -6.21875 3.6546783q-3.671875 1.4053192 -8.6875 1.4040527zm38.53125 -43.67775l0 42.75l-8.671875 -0.0021972656l0 -50.71875l8.4375 0.0021362305l0.234375 7.968811zm15.84375 -8.245987l-0.046875 8.0625q-1.078125 -0.23464966 -2.046875 -0.2973938q-0.953125 -0.07836914 -2.171875 -0.07867432q-3.0 -7.6293945E-4 -5.296875 0.9361572q-2.296875 0.9369049 -3.890625 2.6240082q-1.59375 1.6871033 -2.515625 4.014984q-0.90625 2.312271 -1.1875 5.077835l-2.4375 1.4056244q0 -4.59375 0.90625 -8.624771q0.921875 -4.031021 2.84375 -7.139908q1.921875 -3.1245117 4.890625 -4.873764q2.984375 -1.7648621 7.109375 -1.7638092q0.9375 2.2888184E-4 2.15625 0.21928406q1.21875 0.20344543 1.6875 0.43792725zm16.6875 11.113602l0 39.890625l-8.671875 -0.0021820068l0 -50.718765l8.203125 0.002090454l0.46875 10.828232zm-2.0625 12.608856l-3.609375 -0.14154053q0.046875 -5.2031097 1.546875 -9.624603q1.5 -4.4371185 4.21875 -7.717682q2.71875 -3.2805634 6.484375 -5.076477q3.78125 -1.811554 8.375 -1.810379q3.75 9.460449E-4 6.75 1.017334q3.0 1.0007477 5.125 3.204422q2.140625 2.203659 3.265625 5.703949q1.125 3.484665 1.125 8.50029l0 33.234375l-8.71875 -0.0022125244l0 -33.328125q0 -3.984375 -1.171875 -6.39093q-1.171875 -2.422165 -3.421875 -3.5164795q-2.25 -1.1099548 -5.53125 -1.1107788q-3.234375 -8.239746E-4 -5.890625 1.3578796q-2.640625 1.3587036 -4.546875 3.7488556q-1.890625 2.3901367 -2.953125 5.4680023q-1.046875 3.0622253 -1.046875 6.4841003z" fill-rule="nonzero"/><path fill="#000000" fill-opacity="0.0" d="m489.40955 87.671844l248.69293 0.06299591l0 135.74802l-248.69293 -0.06298828z" fill-rule="evenodd"/><path fill="#595959" d="m521.0502 175.29298l11.671875 -37.168915l2.953125 7.4768066E-4l-3.09375 11.764832l-12.515625 38.949966l-3.0 -7.6293945E-4l3.984375 -13.545868zm-15.09375 -37.175705l10.5 37.22142l3.1875 13.500809l-3.0 -7.6293945E-4l-14.71875 -50.72249l4.03125 0.0010223389zm46.59375 37.183685l10.359375 -37.16925l4.078125 0.0010375977l-14.765625 50.71501l-3.0 -7.6293945E-4l3.328125 -13.546036zm-16.359375 -37.176025l11.625 37.034195l3.984375 13.688522l-3.0 -7.6293945E-4l-12.703125 -38.956345l-2.90625 -11.766373l3.0 7.6293945E-4zm46.265625 -21.269531l0 72.0l-3.703125 -9.3078613E-4l0 -72.0l3.703125 9.3078613E-4zm-0.703125 42.749832l-1.828125 -2.156723q0.421875 -4.031143 1.984375 -7.6869965q1.578125 -3.6558533 4.171875 -6.467697q2.609375 -2.8118286 6.09375 -4.4515686q3.5 -1.63974 7.71875 -1.6386719q3.796875 9.613037E-4 6.796875 1.0642242q3.0 1.0476227 5.078125 3.2981567q2.09375 2.250534 3.171875 5.7976837q1.078125 3.5315094 1.078125 8.594009l0 32.906265l-3.703125 -9.460449E-4l0 -32.90625q0 -6.0 -1.640625 -9.297287q-1.640625 -3.3129272 -4.578125 -4.6730347q-2.921875 -1.3601227 -6.8125 -1.3610992q-4.5 -0.0011444092 -7.765625 1.9980316q-3.25 1.983551 -5.359375 5.014267q-2.109375 3.015091 -3.21875 6.249176q-1.09375 3.2341003 -1.1875 5.71846zm53.953125 -21.455093l0 50.71875l-3.75 -9.460449E-4l0 -50.71875l3.75 9.460449E-4zm-4.921875 -15.376244q0 -1.265625 0.859375 -2.1716537q0.875 -0.92165375 2.234375 -0.9213104q1.3125 3.2806396E-4 2.203125 0.92243195q0.890625 0.90647125 0.890625 2.1720963q0 1.265625 -0.890625 2.1404037q-0.890625 0.8591461 -2.203125 0.85881805q-1.359375 -3.4332275E-4 -2.234375 -0.8599396q-0.859375 -0.87522125 -0.859375 -2.1408463zm39.046875 15.384895l0 3.375l-24.28125 -0.006149292l0 -3.375l24.28125 0.006149292zm-14.90625 -13.410034l3.75 9.536743E-4l0 51.890633q0 4.078125 1.0 6.172119q1.015625 2.0783844 2.671875 2.8131866q1.671875 0.719162 3.59375 0.71965027q1.359375 3.5095215E-4 2.5 -0.13998413q1.15625 -0.14033508 2.328125 -0.32754517l0.328125 3.2813416q-1.03125 0.3278656 -2.671875 0.48368835q-1.640625 0.17146301 -2.90625 0.17114258q-3.1875 -8.087158E-4 -5.578125 -1.1732788q-2.390625 -1.1724854 -3.703125 -4.047821q-1.3125 -2.8909607 -1.3125 -7.9534607l0 -51.890625z" fill-rule="nonzero"/><path fill="#000000" fill-opacity="0.0" d="m423.05966 161.94017l53.858246 -53.85827l41.13385 41.133858l-53.858246 53.858276z" fill-rule="evenodd"/><path fill="#595959" d="m464.55887 172.2162l-6.1761475 -6.176132q-0.93911743 -0.9391327 -2.0108337 -1.2153473q-1.0716858 -0.2762146 -2.1875916 0.13258362q-1.1269531 0.39775085 -2.2318115 1.5026093q-1.0275269 1.0275116 -1.4804993 2.2097015q-0.45300293 1.1600952 -0.29830933 2.242859q0.15466309 1.0827637 0.9170227 1.845108l-0.894928 0.87283325q-0.6850281 -0.6850128 -0.99438477 -1.6351776q-0.29830933 -0.9612274 -0.18780518 -2.043991q0.11047363 -1.1048584 0.6408081 -2.2097015q0.54138184 -1.1159058 1.5246887 -2.099228q1.259552 -1.2595367 2.6516418 -1.789856q1.3921204 -0.5524292 2.7842407 -0.24307251q1.3921204 0.3093567 2.6626892 1.5799408l5.899933 5.8999176q0.6408081 0.64082336 1.381073 1.2042999q0.7402649 0.56347656 1.2926636 0.8065338l0.11050415 0.11048889l-0.9612427 0.9612274q-0.5413513 -0.29830933 -1.215332 -0.83969116q-0.66290283 -0.5524292 -1.2263794 -1.1159058zm-4.297882 -4.872406l0.78445435 0.74024963l-2.9168396 2.9168243q-1.1048279 1.1048431 -1.7677612 2.1876068q-0.66290283 1.0827484 -0.8838806 2.077118q-0.22097778 0.9943695 -0.011047363 1.845108q0.20993042 0.8507385 0.87283325 1.5136566q0.6850281 0.6850128 1.6241455 0.894928q0.93911743 0.20993042 1.9445496 -0.11048889q0.99435425 -0.33145142 1.8671875 -1.2042847q1.1932373 -1.1932373 1.701477 -2.5190735q0.50823975 -1.3479156 0.4309082 -2.684784q-0.088409424 -1.3479309 -0.7402649 -2.5743103l1.0275269 0.2541046q0.3977356 0.773407 0.59661865 1.7677765q0.19885254 0.9943695 0.06628418 2.1213226q-0.14364624 1.1158905 -0.68499756 2.2759857q-0.5524292 1.1490631 -1.6351929 2.2318115q-1.1380005 1.1380005 -2.4085999 1.5688934q-1.2705688 0.40879822 -2.4748535 0.13258362q-1.215332 -0.28726196 -2.1765747 -1.2484894q-0.8286438 -0.8286438 -1.1380005 -1.8892975q-0.3093567 -1.0606537 -0.088378906 -2.2539062q0.22097778 -1.215332 0.9833069 -2.4859161q0.7623596 -1.2926788 2.0439758 -2.5743103l2.9831238 -2.9831085zm2.563263 -7.8002777l9.402313 9.402313l-0.87283325 0.87283325l-11.954529 -11.954514l0.8617859 -0.8617859l2.563263 2.541153zm2.3422852 2.6737518l-0.93911743 -0.07733154q-0.8507385 -1.0496216 -1.3479309 -2.276001q-0.48614502 -1.237442 -0.54138184 -2.5080261q-0.044189453 -1.2816315 0.38671875 -2.4859161q0.44192505 -1.2153473 1.4363098 -2.2097168q0.894928 -0.894928 1.8561401 -1.3479156q0.9501648 -0.4640503 1.9666443 -0.41984558q1.0275269 0.03314209 2.1213074 0.6187134q1.0827637 0.5745239 2.276001 1.7677765l7.756073 7.756073l-0.87283325 0.87283325l-7.756073 -7.756073q-1.4142151 -1.4142151 -2.5743103 -1.8009186q-1.1711426 -0.39775085 -2.1875916 -0.022094727q-1.0054321 0.3645935 -1.9224548 1.2816315q-1.060669 1.0606537 -1.3589783 2.309143q-0.29830933 1.2263947 -0.07733154 2.4417267q0.20993042 1.2042999 0.7070923 2.2318115q0.50823975 1.0164642 1.0717163 1.6241302zm24.19632 -15.048111l-14.650391 -14.650375l0.87286377 -0.87283325l16.97055 16.970566l-0.83969116 0.83969116l-2.3533325 -2.2870483zm-12.009766 4.9165955l-0.23202515 -0.23200989q-1.4031677 -1.4031677 -2.2097168 -2.8284302q-0.81759644 -1.4363098 -1.016449 -2.8063354q-0.20993042 -1.381073 0.2098999 -2.6405945q0.41986084 -1.2816315 1.4915771 -2.3533478q1.0054016 -1.0054169 2.11026 -1.4694519q1.093811 -0.4750824 2.2539062 -0.46403503q1.1490479 0 2.2980957 0.41984558q1.1490479 0.3977356 2.2649536 1.1600952l4.1210938 4.1210938q0.69607544 0.9612274 1.060669 2.0550385q0.3645935 1.071701 0.33145142 2.2097015q-0.03314209 1.1159058 -0.5303345 2.2318115q-0.49716187 1.1159058 -1.5357361 2.1544647q-1.060669 1.0606537 -2.3422852 1.4584045q-1.2816467 0.39775085 -2.673767 0.17678833q-1.3921204 -0.22097778 -2.8173828 -1.0275269q-1.4252625 -0.8065338 -2.7842102 -2.165512zm0.66290283 -1.1269531l0.23202515 0.23202515q1.1380005 1.1380005 2.3201904 1.8782501q1.1932373 0.7292023 2.3533325 0.98332214q1.1711426 0.24307251 2.2649536 -0.055236816q1.1048584 -0.30937195 2.0550232 -1.2595367q1.2153625 -1.2153473 1.6130981 -2.4969788q0.3977356 -1.2816315 0.16574097 -2.5080109q-0.22097778 -1.237442 -0.90600586 -2.3202057l-3.900116 -3.9001312q-0.6850281 -0.4419403 -1.579956 -0.8065491q-0.894928 -0.38668823 -1.911377 -0.4750824q-1.0054321 -0.09944153 -2.0771484 0.28726196q-1.0827637 0.37565613 -2.143402 1.4363098q-0.9612427 0.9612274 -1.2705994 2.0660858q-0.29830933 1.0937958 -0.055236816 2.2649536q0.24307251 1.1711426 0.9722595 2.36438q0.7402649 1.18219 1.867218 2.309143z" fill-rule="nonzero"/></g></svg>