<svg xmlns="http://www.w3.org/2000/svg" xmlns:xlink="http://www.w3.org/1999/xlink" xmlns:lucid="lucid" width="1257.45" height="194.67"><g transform="translate(-469.88666666666654 -419.3333333333333)" lucid:page-tab-id="5W4Rh0hSgBdo"><path d="M491.33 425.33a6 6 0 0 1 6-6h480a6 6 0 0 1 6 6V608a6 6 0 0 1-6 6h-480a6 6 0 0 1-6-6z" fill="none"/><use xlink:href="#a" transform="matrix(1,0,0,1,491.33333333333326,419.3333333333333) translate(-21.446666666666715 170.66666666666669)"/><path d="M1235.33 425.33a6 6 0 0 1 6-6h480a6 6 0 0 1 6 6V608a6 6 0 0 1-6 6h-480a6 6 0 0 1-6-6z" fill="none"/><use xlink:href="#b" transform="matrix(1,0,0,1,1235.3333333333333,419.33333333333337) translate(12.4733333333333 170.66666666666669)"/><path d="M892.67 425.33a6 6 0 0 1 6-6h480a6 6 0 0 1 6 6V608a6 6 0 0 1-6 6h-480a6 6 0 0 1-6-6z" fill="none"/><use xlink:href="#c" transform="matrix(1,0,0,1,892.6666666666666,419.33333333333337) translate(175.88666666666666 170.66666666666669)"/><defs><path d="M869-403c-19 6-48 3-53 24L721 0H532l-78-390c0-9-13-9-15 0L354 0H166L67-379c-4-22-35-17-54-24v-62h197v62c-15 6-46 2-41 27l59 274c5 22 12 35 29 35 19 0 25-13 30-35l73-354h175l67 354c4 22 12 35 31 35 17 0 24-13 28-35l55-275c9-25-26-21-42-26v-62h195v62" id="d"/><path d="M513-267c0 17-1 33-3 66-23 5-251 14-277 2-22-10-36-34-63-38-21-3-20 22-19 43 0 31 6 66 27 89 30 33 89 33 130 33 61 0 109-9 165-19l13 72S405 7 298 7C140 7 50-27 50-232c0-59 9-117 25-153 32-69 103-86 211-86 175 0 227 42 227 204zm-102-4c0-112-25-124-120-124-130 0-133 21-139 121 161 11 100 7 259 3" id="e"/><path d="M431-467l-7 91c-26-9-239 1-219 5v282c0 28 39 18 58 27V0H49v-62c19-9 58 1 58-27v-287c0-28-39-18-58-27v-62h128c8 24-5 56 26 60 41-11 65-42 98-61-7-4 122-7 130-1" id="f"/><path d="M597 0H383v-62c19-9 58 1 58-27v-196c0-93-19-107-112-107-49 0-100 8-123 12v291c-1 28 39 18 57 27V0H49v-62c19-9 58 1 58-27v-287c0-28-39-18-58-27v-62h134c6 22-5 48 24 52 37-9 59-37 89-54 0 0 41-4 59-4 145 0 185 37 185 178v204c-1 28 39 18 57 27V0" id="g"/><g id="a"><use transform="matrix(0.21333333333333335,0,0,0.21333333333333335,0,0)" xlink:href="#d"/><use transform="matrix(0.21333333333333335,0,0,0.21333333333333335,188.16000000000003,0)" xlink:href="#e"/><use transform="matrix(0.21333333333333335,0,0,0.21333333333333335,308.2666666666667,0)" xlink:href="#f"/><use transform="matrix(0.21333333333333335,0,0,0.21333333333333335,400.21333333333337,0)" xlink:href="#g"/></g><path d="M530-293v204c-1 28 39 18 57 27V0H373v-62c19-9 58 1 58-27v-196c0-93-19-107-112-107-49 0-100 8-123 12v291c-1 28 39 18 57 27V0H39v-62c19-9 58 1 58-27v-488c0-28-39-18-58-27v-62h157v228c-2 26 24 27 39 14 40-22 40-47 111-47 145 0 184 37 184 178" id="h"/><path d="M206-550H85v-116h121v116zM263 0H49v-62c19-9 58 1 58-27v-287c0-28-39-18-58-27v-62h157v376c-1 28 39 18 57 27V0" id="i"/><path d="M336-10S289 4 236 4C114 4 99-43 99-150v-240H6v-75h93v-124h99v124h138v75H198v255c0 52 6 66 63 66 22 0 66-8 66-8" id="j"/><g id="b"><use transform="matrix(0.21333333333333335,0,0,0.21333333333333335,0,0)" xlink:href="#d"/><use transform="matrix(0.21333333333333335,0,0,0.21333333333333335,188.16000000000003,0)" xlink:href="#h"/><use transform="matrix(0.21333333333333335,0,0,0.21333333333333335,321.7066666666667,0)" xlink:href="#i"/><use transform="matrix(0.21333333333333335,0,0,0.21333333333333335,387.20000000000005,0)" xlink:href="#j"/></g><path d="M622-309h-88v299C513-7 430 7 327 7 176 7 72-13 72-183c0-59 13-90 13-90l104-58c11-4 11-21 0-24l-95-53s-9-37-9-87c0-140 73-178 202-178 100 0 179 21 179 21l-9 53s-82-17-154-17c-98 0-148 17-148 121 0 103 50 130 148 130h164v-100h67v100h88v56zM467-59v-250H296c-102 0-153 19-153 129 0 127 76 130 182 130 68 0 142-9 142-9" id="k"/><use transform="matrix(0.21333333333333335,0,0,0.21333333333333335,0,0)" xlink:href="#k" id="c"/></defs></g></svg>